<?xml version="1.0"?><svg xmlns="http://www.w3.org/2000/svg"  viewBox="0 0 30 30" width="30px" height="30px">    <path d="M24,4H6C4.895,4,4,4.895,4,6v18c0,1.105,0.895,2,2,2h18c1.105,0,2-0.895,2-2V6C26,4.895,25.105,4,24,4z M22.804,22 c0,0-0.877-1.497-2.347-1.497c-1.417,0-2.502,1.497-5.355,1.497c-5.302-0.001-8.307-3.944-9.085-5.172 c-0.061-0.097,0.053-0.203,0.149-0.142c2.255,1.422,4.436,2.115,5.946,2.114c2.21-0.001,3.455-1.066,3.455-1.066 c-2.035-1.202-6.91-6.798-7.948-8.361C7.547,9.266,7.676,9.148,7.775,9.231c4.224,3.564,6.631,4.907,6.631,4.907 c-0.894-0.753-3.556-4.267-4.663-5.83C9.668,8.202,9.806,8.08,9.9,8.168c3.03,2.826,8.325,6.901,8.325,6.901 c0.333-0.94,0.544-2.069,0.53-2.932C18.72,9.86,17.257,7.591,16.65,6.703c-0.069-0.1,0.056-0.213,0.155-0.142 c3.945,2.843,5.141,6.393,5.141,8.441c-0.001,1.472-0.532,2.399-0.532,2.399S23.664,19.863,22.804,22z"/></svg>